<svg xmlns="http://www.w3.org/2000/svg"
     width="1440" height="560" preserveAspectRatio="none" viewBox="0 0 1440 560">
  <g mask="url(&quot;#SvgjsMask1005&quot;)" fill="none">
    <path
      d="M -481.56674853511475,99 C -409.57,153 -265.57,333.6 -121.56674853511477,369 C 22.43,404.4 94.43,284.4 238.43325146488525,276 C 382.43,267.6 454.43,361.2 598.4332514648852,327 C 742.43,292.8 814.43,92.2 958.4332514648852,105 C 1102.43,117.8 1222.12,362.2 1318.4332514648852,391 C 1414.75,419.8 1415.69,277.4 1440,249"
      stroke="rgba(31, 38, 45, 1)" stroke-width="2"></path>
    <path
      d="M -7.340765461436661,127 C 64.66,183 208.66,390 352.65923453856334,407 C 496.66,424 568.66,219.4 712.6592345385634,212 C 856.66,204.6 928.66,366 1072.6592345385634,370 C 1216.66,374 1288.66,228.4 1432.6592345385634,232 C 1576.66,235.6 1791.19,383.8 1792.6592345385634,388 C 1794.13,392.2 1510.53,280 1440,253"
      stroke="rgba(31, 38, 45, 1)" stroke-width="2"></path>
    <path
      d="M -309.7236457147215,400 C -237.72,345.8 -93.72,114.2 50.27635428527851,129 C 194.28,143.8 266.28,455.4 410.2763542852785,474 C 554.28,492.6 626.28,256.2 770.2763542852786,222 C 914.28,187.8 986.28,313.8 1130.2763542852786,303 C 1274.28,292.2 1428.33,164.8 1490.2763542852786,168 C 1552.22,171.2 1450.06,288.8 1440,319"
      stroke="rgba(31, 38, 45, 1)" stroke-width="2"></path>
    <path
      d="M -591.4112212152893,234 C -519.41,264 -375.41,419.2 -231.41122121528923,384 C -87.41,348.8 -15.41,43.2 128.58877878471077,58 C 272.59,72.8 344.59,437.2 488.58877878471077,458 C 632.59,478.8 704.59,169.4 848.5887787847107,162 C 992.59,154.6 1090.31,426.8 1208.5887787847107,421 C 1326.87,415.2 1393.72,190.6 1440,133"
      stroke="rgba(31, 38, 45, 1)" stroke-width="2"></path>
  </g>
  <defs>
    <mask id="SvgjsMask1005">
      <rect width="1440" height="560" fill="#ffffff"></rect>
    </mask>
  </defs>
</svg>
